<svg width="100" height="34" viewBox="0 0 100 34" fill="none" xmlns="http://www.w3.org/2000/svg">
<path d="M42.28 19.58L39.724 12.896C39.54 12.44 39.356 11.864 39.172 11.168C39.084 11.512 38.992 11.832 38.896 12.128C38.808 12.424 38.72 12.688 38.632 12.92L36.088 19.58H42.28ZM47.332 26H45.364C45.14 26 44.956 25.944 44.812 25.832C44.668 25.72 44.564 25.576 44.5 25.4L42.976 21.404H35.38L33.856 25.4C33.8 25.552 33.696 25.692 33.544 25.82C33.392 25.94 33.208 26 32.992 26H31.024L37.888 8.768H40.468L47.332 26ZM53.4794 19.03C54.0194 19.03 54.4927 18.96 54.8994 18.82C55.3127 18.68 55.656 18.4833 55.9294 18.23C56.2094 17.97 56.4194 17.6633 56.5594 17.31C56.6994 16.95 56.7694 16.5533 56.7694 16.12C56.7694 15.2467 56.496 14.56 55.9494 14.06C55.4094 13.56 54.586 13.31 53.4794 13.31H51.2594V19.03H53.4794ZM53.4794 11.64C54.3994 11.64 55.1994 11.7467 55.8794 11.96C56.5594 12.1733 57.1227 12.4767 57.5694 12.87C58.016 13.2567 58.346 13.7267 58.5594 14.28C58.7794 14.8333 58.8894 15.4467 58.8894 16.12C58.8894 16.7933 58.7727 17.4133 58.5394 17.98C58.306 18.54 57.9627 19.0233 57.5094 19.43C57.056 19.8367 56.4894 20.1533 55.8094 20.38C55.136 20.6 54.3594 20.71 53.4794 20.71H51.2594V26H49.1294V11.64H53.4794Z" fill="#4D4DFF"/>
<path d="M69.4588 24.21V26H61.2388V11.64H63.3688V24.21H69.4588ZM73.6717 26H71.5317V11.64H73.6717V26ZM79.3553 13.37V18.18H85.1153V19.91H79.3553V26H77.2153V11.64H86.1153V13.37H79.3553ZM94.1139 20.32V26H91.9939V20.32L86.7339 11.64H88.6039C88.7906 11.64 88.9406 11.6867 89.0539 11.78C89.1672 11.8667 89.2606 11.9833 89.3339 12.13L92.4539 17.5C92.5806 17.7467 92.6939 17.98 92.7939 18.2C92.9006 18.42 92.9939 18.6367 93.0739 18.85C93.1472 18.6367 93.2306 18.42 93.3239 18.2C93.4239 17.98 93.5372 17.7467 93.6639 17.5L96.7739 12.13C96.8406 12.01 96.9306 11.9 97.0439 11.8C97.1639 11.6933 97.3139 11.64 97.4939 11.64H99.3739L94.1139 20.32Z" fill="black"/>
<circle cx="13.5" cy="13.5" r="13.5" fill="#4D4DFF"/>
<path d="M20 19C20 23.9706 15.9706 28 11 28C6.02944 28 2 23.9706 2 19C2 14.0294 11.5294 4.5 16.5 4.5C21.4706 4.5 20 14.0294 20 19Z" fill="#FBFBFB"/>
<circle cx="8" cy="27" r="7" fill="#4D4DFF"/>
</svg>
